<svg width="28" height="34" viewBox="0 0 28 34" fill="none" xmlns="http://www.w3.org/2000/svg">
<g id="Group 30">
<path id="Vector" d="M14.0795 5.92311C14.643 5.92311 15.9816 6.28918 15.9816 6.28918C19.608 7.14302 22.1605 10.5751 22.1605 14.45V24.8798L22.9019 25.6452L23.5214 26.2845H4.47857L5.09807 25.6452L5.83951 24.8798V14.45C5.83951 10.5751 8.39205 7.14302 12.0184 6.28918C12.0184 6.28918 13.4537 5.92311 13.9205 5.92311M14 0C12.5998 0 11.5294 1.10484 11.5294 2.55V3.73992C6.83502 4.84516 3.29406 9.265 3.29406 14.45V23.8L0 27.2V28.9H28V27.2L24.7059 23.8V14.45C24.7059 9.265 21.1649 4.84516 16.4706 3.73992V2.55C16.4706 1.10484 15.4002 0 14 0ZM17.2941 30.6H10.7059C10.7059 32.4701 12.188 34 14 34C15.812 34 17.2941 32.4701 17.2941 30.6Z" fill="black" fill-opacity="0.5"/>
</g>
</svg>
