<svg width="61" height="61" viewBox="0 0 61 61" fill="none" xmlns="http://www.w3.org/2000/svg">
<circle cx="30.5" cy="30.5" r="30.5" fill="#D9D9D9"/>
<path d="M45.8968 20.6655C45.6877 20.4547 45.4388 20.2873 45.1646 20.173C44.8904 20.0588 44.5964 20 44.2993 20C44.0023 20 43.7082 20.0588 43.434 20.173C43.1598 20.2873 42.911 20.4547 42.7018 20.6655L25.9393 37.4505L18.8968 30.3855C18.6797 30.1758 18.4233 30.0108 18.1424 29.9001C17.8614 29.7894 17.5615 29.7351 17.2596 29.7403C16.9576 29.7455 16.6597 29.8102 16.3828 29.9305C16.1059 30.0509 15.8554 30.2246 15.6456 30.4418C15.4358 30.659 15.2708 30.9153 15.1601 31.1963C15.0494 31.4772 14.9951 31.7772 15.0003 32.0791C15.0056 32.381 15.0702 32.6789 15.1906 32.9558C15.3109 33.2328 15.4847 33.4833 15.7018 33.693L24.3418 42.333C24.551 42.5439 24.7998 42.7113 25.074 42.8256C25.3482 42.9398 25.6423 42.9986 25.9393 42.9986C26.2364 42.9986 26.5304 42.9398 26.8046 42.8256C27.0788 42.7113 27.3277 42.5439 27.5368 42.333L45.8968 23.973C46.1252 23.7624 46.3075 23.5066 46.4321 23.222C46.5568 22.9374 46.6212 22.63 46.6212 22.3193C46.6212 22.0086 46.5568 21.7012 46.4321 21.4166C46.3075 21.132 46.1252 20.8762 45.8968 20.6655Z" fill="black"/>
</svg>
