<svg width="29" height="31" viewBox="0 0 29 31" fill="none" xmlns="http://www.w3.org/2000/svg">
<path d="M17.0538 15.4983L28.4643 3.319C28.8053 2.95439 28.9969 2.45987 28.9969 1.94423C28.9969 1.42859 28.8053 0.934064 28.4643 0.569451C28.1232 0.204838 27.6606 0 27.1783 0C26.696 0 26.2334 0.204838 25.8924 0.569451L14.5 12.7682L3.10763 0.569451C2.76658 0.204838 2.30401 4.57809e-07 1.82169 4.61651e-07C1.33937 4.65492e-07 0.876799 0.204838 0.535746 0.569451C0.194693 0.934064 0.00309141 1.42859 0.0030914 1.94423C0.0030914 2.45987 0.194693 2.95439 0.535746 3.319L11.9462 15.4983L0.535746 27.6777C0.365986 27.8577 0.231245 28.0719 0.139293 28.3078C0.0473417 28.5438 0 28.7969 0 29.0525C0 29.3081 0.0473417 29.5612 0.139293 29.7971C0.231245 30.0331 0.365986 30.2472 0.535746 30.4272C0.704119 30.6087 0.904439 30.7528 1.12515 30.8511C1.34586 30.9494 1.58259 31 1.82169 31C2.06079 31 2.29752 30.9494 2.51823 30.8511C2.73894 30.7528 2.93926 30.6087 3.10763 30.4272L14.5 18.2285L25.8924 30.4272C26.0607 30.6087 26.2611 30.7528 26.4818 30.8511C26.7025 30.9494 26.9392 31 27.1783 31C27.4174 31 27.6541 30.9494 27.8749 30.8511C28.0956 30.7528 28.2959 30.6087 28.4643 30.4272C28.634 30.2472 28.7688 30.0331 28.8607 29.7971C28.9527 29.5612 29 29.3081 29 29.0525C29 28.7969 28.9527 28.5438 28.8607 28.3078C28.7688 28.0719 28.634 27.8577 28.4643 27.6777L17.0538 15.4983Z" fill="#F2F2F2"/>
</svg>
