<svg width="130" height="131" viewBox="0 0 130 131" fill="none" xmlns="http://www.w3.org/2000/svg">
<path id="Vector" d="M88.6992 69.6507C95.0718 64.637 99.7232 57.7617 102.006 49.9813C104.289 42.201 104.091 33.9024 101.438 26.2403C98.785 18.5781 93.8099 11.9333 87.2047 7.23028C80.5995 2.5273 72.6927 0 64.5842 0C56.4758 0 48.569 2.5273 41.9638 7.23028C35.3586 11.9333 30.3835 18.5781 27.7306 26.2403C25.0777 33.9024 24.879 42.201 27.1622 49.9813C29.4453 57.7617 34.0967 64.637 40.4692 69.6507C29.5497 74.0255 20.0221 81.2815 12.902 90.6452C5.78194 100.009 1.33637 111.129 0.039207 122.821C-0.0546882 123.674 0.0204645 124.538 0.260372 125.363C0.50028 126.187 0.900245 126.956 1.43743 127.626C2.52233 128.979 4.1003 129.846 5.82421 130.036C7.54812 130.225 9.27675 129.722 10.6298 128.638C11.9829 127.553 12.8496 125.975 13.0392 124.251C14.4665 111.544 20.5252 99.8095 30.0576 91.2879C39.5901 82.7662 51.9281 78.0554 64.7142 78.0554C77.5004 78.0554 89.8383 82.7662 99.3708 91.2879C108.903 99.8095 114.962 111.544 116.389 124.251C116.566 125.848 117.328 127.323 118.528 128.391C119.729 129.46 121.282 130.045 122.889 130.036H123.604C125.308 129.84 126.865 128.978 127.937 127.639C129.008 126.3 129.507 124.591 129.324 122.886C128.021 111.161 123.551 100.012 116.395 90.6341C109.238 81.256 99.6641 74.0023 88.6992 69.6507ZM64.5842 65.0357C59.4419 65.0357 54.4151 63.5109 50.1394 60.6539C45.8637 57.797 42.5312 53.7364 40.5633 48.9855C38.5955 44.2346 38.0806 39.0069 39.0838 33.9634C40.087 28.9199 42.5633 24.2871 46.1994 20.6509C49.8356 17.0148 54.4684 14.5385 59.5119 13.5353C64.5554 12.5321 69.7831 13.047 74.534 15.0149C79.2849 16.9827 83.3455 20.3152 86.2024 24.5909C89.0593 28.8666 90.5842 33.8934 90.5842 39.0357C90.5842 45.9314 87.8449 52.5446 82.969 57.4205C78.093 62.2965 71.4798 65.0357 64.5842 65.0357Z" fill="#F2F2F2"/>
</svg>
